<svg id="svg" xmlns="http://www.w3.org/2000/svg" xmlns:xlink="http://www.w3.org/1999/xlink" width="400" height="400" viewBox="0, 0, 400,400"><g id="svgg"><path id="path0" d="M121.366 114.927 L 121.366 151.024 157.463 151.024 L 193.561 151.024 193.561 114.927 L 193.561 78.829 157.463 78.829 L 121.366 78.829 121.366 114.927 M206.439 114.927 L 206.439 151.024 242.537 151.024 L 278.634 151.024 278.634 114.927 L 278.634 78.829 242.537 78.829 L 206.439 78.829 206.439 114.927 M179.028 114.829 L 178.927 136.390 157.366 136.491 L 135.805 136.592 135.805 114.930 L 135.805 93.268 157.467 93.268 L 179.129 93.268 179.028 114.829 M264.101 114.829 L 264.000 136.390 242.439 136.491 L 220.878 136.592 220.878 114.930 L 220.878 93.268 242.540 93.268 L 264.202 93.268 264.101 114.829 M143.610 114.927 L 143.610 128.780 157.463 128.780 L 171.317 128.780 171.317 114.927 L 171.317 101.073 157.463 101.073 L 143.610 101.073 143.610 114.927 M121.366 198.439 L 121.366 234.537 157.463 234.537 L 193.561 234.537 193.561 198.439 L 193.561 162.341 157.463 162.341 L 121.366 162.341 121.366 198.439 M206.439 169.951 L 206.439 177.561 230.439 177.561 L 254.439 177.561 254.439 169.951 L 254.439 162.341 230.439 162.341 L 206.439 162.341 206.439 169.951 M263.415 173.268 L 263.415 184.195 249.561 184.195 L 235.707 184.195 235.707 191.805 L 235.707 199.415 257.171 199.415 L 278.634 199.415 278.634 180.878 L 278.634 162.341 271.024 162.341 L 263.415 162.341 263.415 173.268 M179.028 198.341 L 178.927 219.902 157.366 220.003 L 135.805 220.104 135.805 198.442 L 135.805 176.780 157.467 176.780 L 179.129 176.780 179.028 198.341 M206.439 209.561 L 206.439 234.537 214.049 234.537 L 221.659 234.537 221.659 209.561 L 221.659 184.585 214.049 184.585 L 206.439 184.585 206.439 209.561 M243.427 214.341 L 243.317 219.122 235.415 219.228 L 227.512 219.333 227.512 226.935 L 227.512 234.537 236.293 234.537 L 245.073 234.537 245.073 229.854 L 245.073 225.171 253.073 225.171 L 261.073 225.171 261.073 229.854 L 261.073 234.537 269.854 234.537 L 278.634 234.537 278.634 226.927 L 278.634 219.317 270.439 219.317 L 262.244 219.317 262.244 214.439 L 262.244 209.561 252.890 209.561 L 243.536 209.561 243.427 214.341 M103.434 276.585 C 103.614 277.390,105.705 286.893,108.080 297.703 C 110.455 308.513,112.495 317.513,112.613 317.703 C 112.730 317.893,114.553 318.049,116.663 318.049 L 120.499 318.049 130.931 298.244 C 136.669 287.351,141.788 277.693,142.308 276.780 L 143.252 275.122 138.944 275.122 L 134.636 275.122 126.565 291.220 L 118.493 307.317 116.666 297.951 C 115.661 292.800,114.259 285.556,113.550 281.854 L 112.261 275.122 107.684 275.122 L 103.107 275.122 103.434 276.585 M146.369 275.792 C 141.741 278.199,142.683 284.083,147.620 283.609 C 152.756 283.115,153.980 276.134,149.073 275.322 C 148.152 275.169,147.272 275.322,146.369 275.792 M163.281 287.597 C 157.518 288.830,154.152 292.453,154.092 297.488 C 154.042 301.664,155.720 303.230,162.517 305.351 C 167.238 306.825,168.195 307.501,168.195 309.362 C 168.195 312.914,161.608 313.809,155.902 311.032 C 152.422 309.338,152.581 309.315,151.807 311.610 C 150.401 315.776,150.319 315.500,153.285 316.600 C 164.168 320.633,173.649 317.355,175.231 309.012 C 176.203 303.889,174.283 301.791,166.404 299.364 C 162.247 298.084,161.171 297.338,161.171 295.737 C 161.171 292.732,167.173 292.045,172.424 294.449 C 173.598 294.986,174.594 295.379,174.638 295.323 C 174.860 295.036,176.390 290.122,176.390 289.696 C 176.390 288.345,166.892 286.824,163.281 287.597 M190.634 287.673 C 189.561 287.874,187.498 288.388,186.049 288.816 L 183.415 289.594 183.415 292.504 C 183.415 294.105,183.546 295.415,183.707 295.414 C 183.868 295.414,184.878 295.082,185.951 294.675 C 193.025 291.997,198.244 292.874,198.244 296.740 L 198.244 298.456 194.829 298.935 C 183.649 300.504,178.550 304.432,178.540 311.482 C 178.531 318.624,187.157 320.827,194.170 315.474 C 196.349 313.811,196.293 313.800,196.293 315.902 L 196.293 317.659 199.407 317.659 C 202.317 317.659,202.535 317.601,202.723 316.780 C 203.675 312.635,206.067 295.283,205.898 293.748 C 205.311 288.408,199.356 286.038,190.634 287.673 M142.647 288.488 C 142.560 288.756,141.592 294.859,140.496 302.049 C 139.399 309.239,138.402 315.693,138.281 316.390 L 138.059 317.659 141.810 317.659 C 143.873 317.659,145.561 317.562,145.561 317.444 C 145.561 317.326,146.527 310.973,147.707 303.327 C 148.888 295.680,149.854 289.104,149.854 288.712 C 149.854 287.821,142.932 287.606,142.647 288.488 M197.325 304.098 C 197.202 304.795,196.985 306.280,196.844 307.398 C 196.559 309.650,196.185 310.104,193.405 311.574 C 188.588 314.122,184.251 311.927,186.304 307.981 C 187.470 305.740,189.356 304.561,193.366 303.565 C 197.412 302.560,197.594 302.585,197.325 304.098 M270.139 327.883 C 266.023 329.269,263.773 336.490,265.571 342.545 C 266.948 347.184,270.994 349.405,275.570 348.034 C 276.942 347.623,277.170 347.663,278.015 348.457 C 278.528 348.938,279.667 349.429,280.547 349.547 L 282.146 349.761 282.146 348.149 C 282.146 346.711,282.046 346.537,281.219 346.537 C 279.595 346.537,279.347 345.741,280.239 343.394 C 283.699 334.287,277.841 325.290,270.139 327.883 M284.488 337.951 L 284.488 348.098 286.049 348.098 L 287.610 348.098 287.610 343.588 L 287.610 339.079 289.412 339.198 L 291.215 339.317 293.169 343.707 L 295.122 348.098 296.810 348.098 L 298.497 348.098 297.966 346.829 C 297.675 346.132,296.806 344.178,296.035 342.488 C 294.370 338.835,294.350 338.625,295.607 337.953 C 297.951 336.698,298.787 332.517,297.143 330.274 C 295.674 328.269,294.160 327.806,289.073 327.805 L 284.488 327.805 284.488 337.951 M275.172 330.758 C 276.962 331.683,277.835 333.990,277.845 337.822 C 277.856 342.054,277.717 342.395,276.274 341.649 C 274.280 340.618,273.171 340.870,273.171 342.353 C 273.171 343.436,273.364 343.707,274.423 344.106 C 276.122 344.748,275.317 345.561,272.982 345.561 C 269.541 345.561,267.882 342.595,268.175 336.967 C 268.466 331.388,271.384 328.799,275.172 330.758 M294.067 331.494 C 296.452 333.880,294.552 336.390,290.359 336.390 L 287.610 336.390 287.610 333.463 L 287.610 330.537 290.359 330.537 C 292.758 330.537,293.231 330.659,294.067 331.494 " stroke="none" fill="#f7f9fb" fill-rule="evenodd"></path><path id="path1" d="M102.244 76.878 L 102.244 93.659 105.756 93.659 L 109.268 93.659 109.268 80.390 L 109.268 67.122 124.293 67.122 L 139.317 67.122 139.317 63.610 L 139.317 60.098 120.780 60.098 L 102.244 60.098 102.244 76.878 M261.854 63.610 L 261.854 67.122 276.683 67.122 L 291.512 67.122 291.512 80.390 L 291.512 93.659 295.024 93.659 L 298.537 93.659 298.537 76.878 L 298.537 60.098 280.195 60.098 L 261.854 60.098 261.854 63.610 M103.024 225.463 C 103.023 228.200,102.907 235.839,102.766 242.439 L 102.508 254.439 121.108 254.439 L 139.707 254.439 139.707 250.732 L 139.707 247.024 124.878 247.024 L 110.049 247.024 110.049 233.756 L 110.049 220.488 106.537 220.488 L 103.024 220.488 103.024 225.463 M291.122 233.756 L 291.122 247.024 276.098 247.024 L 261.073 247.024 261.073 250.732 L 261.073 254.439 279.610 254.439 L 298.146 254.439 298.146 237.463 L 298.146 220.488 294.634 220.488 L 291.122 220.488 291.122 233.756 M216.038 276.182 C 215.914 276.779,214.490 285.961,212.874 296.585 C 211.258 307.210,209.848 316.298,209.741 316.780 C 209.549 317.646,209.604 317.659,213.456 317.659 C 215.606 317.659,217.366 317.501,217.366 317.308 C 217.366 316.670,221.711 288.989,221.829 288.870 C 221.893 288.806,225.361 295.214,229.536 303.109 L 237.126 317.463 240.709 317.576 C 243.013 317.648,244.293 317.542,244.293 317.280 C 244.293 317.056,245.698 307.809,247.415 296.732 C 249.132 285.655,250.537 276.261,250.537 275.857 C 250.537 274.613,243.219 274.751,242.943 276.000 C 242.836 276.483,241.944 282.234,240.960 288.780 C 239.976 295.327,239.042 301.104,238.884 301.618 C 238.642 302.405,237.447 300.389,231.369 288.935 L 224.142 275.317 220.203 275.206 L 216.263 275.095 216.038 276.182 M288.976 277.954 C 287.688 278.168,286.601 278.369,286.560 278.400 C 286.519 278.432,286.203 280.209,285.858 282.351 C 284.856 288.561,285.163 288.000,282.775 288.000 L 280.686 288.000 280.419 290.049 C 280.272 291.176,280.054 292.493,279.936 292.976 C 279.732 293.808,279.835 293.854,281.916 293.854 C 283.991 293.854,284.102 293.902,283.917 294.732 C 283.032 298.712,281.397 311.666,281.611 313.005 C 282.199 316.680,284.940 318.140,290.927 317.967 L 294.829 317.854 294.941 314.732 L 295.053 311.610 292.933 311.610 C 288.797 311.610,288.683 311.148,290.283 300.878 L 291.347 294.049 294.942 293.937 L 298.537 293.824 298.537 290.912 L 298.537 288.000 295.633 288.000 C 292.068 288.000,292.233 288.332,293.110 282.927 C 293.510 280.459,293.841 278.220,293.845 277.951 C 293.855 277.383,292.395 277.384,288.976 277.954 M262.535 287.618 C 248.943 291.053,244.765 314.075,257.083 317.660 C 261.535 318.956,267.498 318.353,272.256 316.126 L 274.732 314.968 274.732 311.988 C 274.732 310.349,274.600 309.068,274.439 309.140 C 274.278 309.213,273.261 309.739,272.178 310.309 C 264.365 314.425,257.932 312.827,257.291 306.611 L 257.062 304.390 266.654 304.390 C 272.283 304.390,276.341 304.237,276.475 304.020 C 276.990 303.187,277.149 297.452,276.715 295.366 C 275.440 289.240,269.329 285.902,262.535 287.618 M267.109 292.847 C 268.738 293.528,269.717 295.301,269.795 297.715 L 269.854 299.512 264.098 299.620 C 257.420 299.745,257.464 299.779,259.610 296.178 C 261.543 292.932,264.339 291.690,267.109 292.847 " stroke="none" fill="#f2a00c" fill-rule="evenodd"></path><path id="path2" d="M0.000 200.000 L 0.000 400.000 200.000 400.000 L 400.000 400.000 400.000 200.000 L 400.000 0.000 200.000 0.000 L 0.000 0.000 0.000 200.000 M139.317 63.415 L 139.317 67.122 124.488 67.122 L 109.659 67.122 109.659 80.599 L 109.659 94.077 105.854 93.965 L 102.049 93.854 101.947 77.268 C 101.891 68.146,101.929 60.463,102.032 60.195 C 102.178 59.814,106.289 59.707,120.768 59.707 L 139.317 59.707 139.317 63.415 M298.927 76.878 L 298.927 94.049 295.220 94.049 L 291.512 94.049 291.512 80.585 L 291.512 67.122 276.488 67.122 L 261.463 67.122 261.463 63.675 C 261.463 61.779,261.580 60.111,261.724 59.967 C 261.867 59.824,270.296 59.707,280.455 59.707 L 298.927 59.707 298.927 76.878 M193.756 114.927 L 193.756 151.220 157.463 151.220 L 121.171 151.220 121.071 114.827 L 120.972 78.435 157.364 78.535 L 193.756 78.634 193.756 114.927 M278.929 114.829 L 278.829 151.220 242.537 151.220 L 206.244 151.220 206.144 114.829 L 206.045 78.439 242.537 78.439 L 279.028 78.439 278.929 114.829 M136.195 114.927 L 136.195 136.195 157.463 136.195 L 178.732 136.195 178.732 114.927 L 178.732 93.659 157.463 93.659 L 136.195 93.659 136.195 114.927 M221.268 114.927 L 221.268 136.195 242.537 136.195 L 263.805 136.195 263.805 114.927 L 263.805 93.659 242.537 93.659 L 221.268 93.659 221.268 114.927 M171.317 114.732 L 171.317 128.780 157.268 128.780 L 143.220 128.780 143.220 114.992 C 143.220 107.408,143.337 101.086,143.480 100.943 C 143.623 100.800,149.945 100.683,157.528 100.683 L 171.317 100.683 171.317 114.732 M193.756 198.439 L 193.756 234.732 157.463 234.732 L 121.171 234.732 121.071 198.339 L 120.972 161.947 157.364 162.047 L 193.756 162.146 193.756 198.439 M254.439 169.954 L 254.439 177.957 230.341 177.857 L 206.244 177.756 206.138 169.854 L 206.033 161.951 230.236 161.951 L 254.439 161.951 254.439 169.954 M279.024 180.878 L 279.024 199.805 257.163 199.805 L 235.301 199.805 235.407 191.902 L 235.512 184.000 249.268 183.897 L 263.024 183.795 263.024 172.873 L 263.024 161.951 271.024 161.951 L 279.024 161.951 279.024 180.878 M136.195 198.439 L 136.195 219.707 157.463 219.707 L 178.732 219.707 178.732 198.439 L 178.732 177.171 157.463 177.171 L 136.195 177.171 136.195 198.439 M221.854 209.561 L 221.854 234.732 214.049 234.732 L 206.244 234.732 206.143 209.951 C 206.087 196.322,206.127 184.947,206.231 184.675 C 206.378 184.291,208.177 184.203,214.137 184.284 L 221.854 184.390 221.854 209.561 M262.549 214.146 L 262.658 218.927 270.849 218.927 L 279.041 218.927 278.935 226.829 L 278.829 234.732 269.951 234.837 L 261.073 234.941 261.073 230.056 L 261.073 225.171 253.073 225.171 L 245.073 225.171 245.073 230.056 L 245.073 234.941 236.195 234.837 L 227.317 234.732 227.317 226.927 L 227.317 219.122 235.220 219.016 L 243.122 218.911 243.122 214.301 C 243.122 211.765,243.242 209.571,243.389 209.424 C 243.536 209.277,247.882 209.204,253.047 209.262 L 262.439 209.366 262.549 214.146 M110.049 233.561 L 110.049 247.024 125.073 247.024 L 140.098 247.024 140.098 250.732 L 140.098 254.439 121.366 254.439 L 102.634 254.439 102.634 237.528 C 102.634 228.228,102.751 220.501,102.894 220.358 C 103.037 220.215,104.706 220.098,106.602 220.098 L 110.049 220.098 110.049 233.561 M298.146 237.268 L 298.146 254.439 279.610 254.439 L 261.073 254.439 261.073 250.732 L 261.073 247.024 275.902 247.024 L 290.732 247.024 290.732 233.821 C 290.732 226.559,290.849 220.501,290.992 220.358 C 291.135 220.215,292.803 220.098,294.699 220.098 L 298.146 220.098 298.146 237.268 M112.704 276.499 C 112.911 277.472,114.287 284.583,115.760 292.303 C 117.233 300.022,118.528 306.339,118.636 306.340 C 118.745 306.341,122.389 299.229,126.733 290.537 L 134.633 274.732 138.955 274.732 C 142.383 274.732,143.251 274.841,143.151 275.258 C 143.081 275.547,138.020 285.288,131.902 296.904 L 120.780 318.024 116.612 318.036 C 112.974 318.047,112.416 317.962,112.235 317.366 C 111.846 316.092,103.024 275.735,103.024 275.232 C 103.024 274.853,104.155 274.732,107.676 274.732 L 112.327 274.732 112.704 276.499 M231.358 288.649 C 235.360 296.197,238.694 302.107,238.768 301.782 C 238.841 301.458,239.809 295.283,240.919 288.060 L 242.936 274.927 246.932 274.816 C 249.129 274.754,250.927 274.800,250.927 274.916 C 250.927 275.166,244.803 314.921,244.476 316.795 L 244.252 318.078 240.729 317.966 L 237.207 317.854 229.725 303.739 C 225.611 295.976,222.148 289.529,222.031 289.413 C 221.914 289.296,220.891 295.296,219.758 302.746 C 218.625 310.197,217.604 316.688,217.490 317.171 C 217.243 318.208,209.571 318.585,209.552 317.561 C 209.540 316.940,215.815 275.879,216.025 275.206 C 216.142 274.831,217.177 274.732,220.131 274.816 L 224.081 274.927 231.358 288.649 M150.621 275.701 C 153.053 276.958,152.989 280.828,150.505 282.693 C 146.236 285.899,141.450 282.407,143.824 277.817 C 145.049 275.448,148.222 274.460,150.621 275.701 M293.918 277.268 C 294.025 277.375,293.795 279.438,293.406 281.853 C 292.393 288.145,292.189 287.610,295.610 287.610 L 298.537 287.610 298.537 290.927 L 298.537 294.244 295.042 294.244 L 291.548 294.244 291.327 295.512 C 288.671 310.799,288.738 311.415,293.048 311.415 L 295.024 311.415 295.024 314.704 L 295.024 317.993 292.832 318.267 C 282.322 319.580,280.330 316.517,282.537 302.439 C 283.180 298.331,283.707 294.807,283.707 294.607 C 283.707 294.407,282.807 294.244,281.706 294.244 L 279.704 294.244 279.963 292.195 C 280.575 287.354,280.421 287.610,282.735 287.610 L 284.798 287.610 285.212 285.171 C 285.440 283.829,285.745 281.806,285.889 280.674 C 286.202 278.222,286.108 278.293,289.883 277.657 C 293.564 277.038,293.677 277.027,293.918 277.268 M173.854 288.150 C 176.947 289.145,176.887 289.008,175.790 292.579 L 174.815 295.755 172.653 294.766 C 167.008 292.181,161.171 292.804,161.171 295.991 C 161.171 297.277,162.131 297.834,166.829 299.269 C 175.382 301.882,177.735 306.103,174.229 312.543 C 170.958 318.554,157.472 320.523,151.164 315.910 C 150.497 315.422,151.856 308.798,152.546 309.175 C 159.102 312.758,164.681 313.538,167.182 311.220 C 169.407 309.158,168.165 307.208,163.828 305.953 C 155.542 303.554,153.436 301.654,153.861 296.962 C 154.571 289.131,163.991 284.979,173.854 288.150 M201.213 287.796 C 206.514 289.370,206.894 291.649,204.461 307.269 C 202.620 319.090,203.101 318.115,199.182 317.969 L 196.098 317.854 195.978 316.206 L 195.859 314.558 193.781 315.937 C 186.401 320.837,178.177 318.569,178.204 311.640 C 178.232 304.537,183.512 300.393,194.555 298.806 L 198.049 298.303 198.170 296.864 C 198.503 292.889,191.795 292.284,184.098 295.595 C 183.479 295.861,183.415 295.589,183.415 292.715 C 183.415 289.078,183.130 289.354,188.293 287.986 C 191.743 287.072,198.444 286.973,201.213 287.796 M271.442 288.149 C 275.967 290.256,278.179 296.423,276.829 303.171 L 276.585 304.390 267.073 304.390 C 256.495 304.390,257.390 304.134,257.559 307.117 C 257.870 312.586,264.231 314.028,271.714 310.326 C 275.297 308.553,275.122 308.464,275.122 312.045 L 275.122 314.887 272.654 316.065 C 260.632 321.803,250.265 317.732,249.826 307.101 C 249.262 293.480,260.928 283.253,271.442 288.149 M150.244 287.932 C 150.244 288.427,145.978 316.174,145.748 317.171 C 145.543 318.061,138.492 318.596,138.032 317.756 C 137.944 317.595,138.521 313.337,139.316 308.293 C 140.110 303.249,141.160 296.532,141.647 293.366 L 142.534 287.610 146.389 287.610 C 148.509 287.610,150.244 287.755,150.244 287.932 M262.829 293.138 C 261.092 294.099,258.341 297.759,258.341 299.109 C 258.341 299.223,260.910 299.317,264.048 299.317 L 269.755 299.317 269.572 297.105 C 269.271 293.478,265.852 291.466,262.829 293.138 M192.556 303.954 C 184.935 306.136,183.196 313.856,190.679 312.287 C 195.039 311.372,196.373 309.943,196.868 305.659 L 197.150 303.220 196.038 303.247 C 195.427 303.263,193.860 303.581,192.556 303.954 M277.107 328.281 C 281.003 330.415,282.638 338.569,280.250 343.966 C 279.407 345.874,279.738 346.537,281.535 346.537 C 281.999 346.537,282.146 346.959,282.146 348.293 C 282.146 349.798,282.033 350.049,281.353 350.049 C 280.181 350.049,277.985 349.044,277.581 348.322 C 277.286 347.794,277.027 347.764,275.963 348.135 C 269.671 350.328,264.815 345.884,264.835 337.951 C 264.857 329.307,270.648 324.743,277.107 328.281 M295.334 328.323 C 298.689 330.125,299.195 334.986,296.295 337.559 L 294.700 338.975 296.608 343.244 C 298.966 348.517,298.964 348.488,296.830 348.488 L 295.122 348.488 293.169 344.098 L 291.215 339.707 289.412 339.588 L 287.610 339.469 287.610 344.001 L 287.610 348.533 285.951 348.413 L 284.293 348.293 284.189 337.814 L 284.085 327.336 289.067 327.484 C 292.874 327.598,294.352 327.795,295.334 328.323 M270.325 331.323 C 266.082 334.661,268.303 345.660,273.146 345.292 C 274.873 345.161,275.482 344.469,274.049 344.266 C 273.289 344.158,273.171 343.908,273.171 342.412 C 273.171 340.453,273.486 340.315,275.780 341.273 C 277.547 342.012,277.527 342.036,277.753 338.843 C 278.213 332.344,274.197 328.278,270.325 331.323 M287.610 333.411 L 287.610 336.390 289.731 336.390 C 293.337 336.390,294.617 335.616,294.628 333.426 C 294.637 331.573,293.542 330.856,290.352 330.628 L 287.610 330.432 287.610 333.411 " stroke="none" fill="#045cd3" fill-rule="evenodd"></path><path id="path3" d="M102.032 60.195 C 101.929 60.463,101.891 68.146,101.947 77.268 L 102.049 93.854 105.854 93.965 L 109.659 94.077 109.566 80.502 L 109.474 66.927 109.366 80.293 L 109.258 93.659 105.751 93.659 L 102.244 93.659 102.244 76.882 L 102.244 60.105 120.878 60.000 L 139.512 59.895 120.866 59.801 C 106.239 59.728,102.179 59.812,102.032 60.195 M261.629 60.228 C 261.520 60.514,261.489 62.226,261.562 64.033 L 261.695 67.317 261.774 63.707 L 261.854 60.098 280.195 60.098 L 298.537 60.098 298.537 76.863 L 298.537 93.629 294.927 93.758 L 291.317 93.887 295.122 93.968 L 298.927 94.049 298.927 76.878 L 298.927 59.707 280.378 59.707 C 265.279 59.707,261.792 59.804,261.629 60.228 M193.656 114.827 L 193.561 151.020 157.366 151.122 L 121.171 151.224 157.378 151.319 C 186.055 151.395,193.624 151.313,193.771 150.927 C 193.874 150.659,193.911 134.283,193.855 114.537 L 193.752 78.634 193.656 114.827 M135.984 93.756 C 135.881 94.024,135.844 103.727,135.902 115.317 L 136.007 136.390 136.101 115.028 L 136.195 93.665 157.561 93.561 L 178.927 93.457 157.549 93.362 C 140.736 93.288,136.131 93.372,135.984 93.756 M221.057 93.756 C 220.954 94.024,220.918 103.727,220.975 115.317 L 221.080 136.390 221.174 115.028 L 221.268 93.665 242.634 93.561 L 264.000 93.457 242.622 93.362 C 225.809 93.288,221.204 93.372,221.057 93.756 M143.397 101.173 C 143.294 101.442,143.258 107.808,143.317 115.319 L 143.425 128.976 143.517 115.029 L 143.610 101.083 157.561 100.975 L 171.512 100.868 157.549 100.775 C 146.636 100.703,143.544 100.790,143.397 101.173 M224.263 151.317 C 234.174 151.375,250.505 151.375,260.556 151.317 C 270.606 151.259,262.498 151.212,242.537 151.212 C 222.576 151.212,214.353 151.259,224.263 151.317 M193.656 198.339 L 193.561 234.533 157.366 234.634 L 121.171 234.736 157.378 234.831 C 186.055 234.907,193.624 234.825,193.771 234.439 C 193.874 234.171,193.911 217.795,193.855 198.049 L 193.752 162.146 193.656 198.339 M135.984 177.268 C 135.881 177.537,135.844 187.239,135.902 198.829 L 136.007 219.902 136.101 198.540 L 136.195 177.177 157.561 177.073 L 178.927 176.969 157.549 176.875 C 140.736 176.801,136.131 176.885,135.984 177.268 M218.467 177.853 C 225.190 177.913,236.078 177.913,242.662 177.853 C 249.247 177.793,243.746 177.744,230.439 177.744 C 217.132 177.745,211.744 177.794,218.467 177.853 M242.439 184.097 C 246.249 184.161,252.483 184.161,256.293 184.097 C 260.102 184.033,256.985 183.981,249.366 183.981 C 241.746 183.981,238.629 184.033,242.439 184.097 M213.951 184.483 L 221.659 184.602 221.659 209.561 L 221.659 234.520 213.951 234.639 L 206.244 234.758 214.049 234.745 L 221.854 234.732 221.854 209.561 L 221.854 184.390 214.049 184.377 L 206.244 184.364 213.951 184.483 M252.866 209.460 L 262.220 209.575 262.349 214.348 L 262.478 219.122 262.459 214.244 L 262.439 209.366 252.975 209.355 L 243.512 209.345 252.866 209.460 M227.304 226.927 L 227.317 234.732 236.098 234.743 L 244.878 234.754 236.203 234.638 L 227.529 234.522 227.410 226.822 L 227.291 219.122 227.304 226.927 M102.809 220.594 C 102.705 220.867,102.670 225.038,102.732 229.862 L 102.845 238.634 102.935 229.576 L 103.024 220.517 106.634 220.388 L 110.244 220.260 106.622 220.179 C 103.989 220.120,102.948 220.233,102.809 220.594 M290.909 220.588 C 290.806 220.858,290.770 226.960,290.829 234.149 L 290.938 247.220 291.030 233.868 L 291.122 220.517 294.732 220.388 L 298.341 220.260 294.719 220.179 C 292.109 220.120,291.045 220.235,290.909 220.588 M265.485 234.828 C 268.019 234.896,272.059 234.896,274.461 234.828 C 276.864 234.759,274.790 234.704,269.854 234.704 C 264.917 234.704,262.951 234.760,265.485 234.828 M139.850 250.732 C 139.851 252.878,139.916 253.706,139.995 252.572 C 140.075 251.438,140.074 249.682,139.994 248.670 C 139.914 247.658,139.849 248.585,139.850 250.732 M136.683 275.020 C 137.917 275.098,139.937 275.098,141.171 275.020 C 142.405 274.943,141.395 274.879,138.927 274.879 C 136.459 274.879,135.449 274.943,136.683 275.020 M215.940 275.334 C 215.812 275.665,215.818 276.046,215.952 276.179 C 216.086 276.313,216.195 276.119,216.195 275.747 C 216.195 275.142,216.618 275.085,220.257 275.194 C 222.490 275.262,224.236 275.185,224.136 275.024 C 223.750 274.404,216.187 274.690,215.940 275.334 M242.911 275.148 C 242.769 275.377,242.759 275.670,242.888 275.798 C 243.017 275.927,243.122 275.828,243.122 275.577 C 243.122 274.746,250.439 274.967,250.658 275.805 C 250.792 276.319,250.847 276.271,250.882 275.610 C 250.932 274.632,243.496 274.201,242.911 275.148 M292.392 287.220 C 292.515 287.674,293.242 287.811,295.641 287.834 L 298.732 287.863 295.816 287.718 C 294.151 287.634,292.758 287.371,292.567 287.103 C 292.331 286.772,292.280 286.806,292.392 287.220 M281.666 287.893 C 282.367 287.979,283.421 287.978,284.007 287.889 C 284.593 287.800,284.020 287.728,282.732 287.731 C 281.444 287.733,280.964 287.806,281.666 287.893 M280.195 294.073 C 281.588 294.381,284.098 294.434,284.098 294.157 C 284.098 293.990,283.088 293.874,281.854 293.899 C 280.620 293.924,279.873 294.002,280.195 294.073 M291.257 294.456 C 291.130 294.787,291.135 295.168,291.269 295.301 C 291.403 295.435,291.512 295.259,291.512 294.909 C 291.512 294.377,292.099 294.252,295.122 294.144 L 298.732 294.016 295.110 293.935 C 292.154 293.869,291.445 293.964,291.257 294.456 M269.712 298.038 L 269.659 299.296 263.902 299.415 L 258.146 299.535 263.915 299.621 C 270.111 299.714,270.312 299.649,269.938 297.687 C 269.805 296.991,269.752 297.073,269.712 298.038 M274.728 311.920 L 274.920 315.122 275.039 312.233 C 275.105 310.644,275.019 309.203,274.848 309.031 C 274.677 308.859,274.623 310.159,274.728 311.920 M292.200 311.691 C 292.685 311.784,293.388 311.780,293.761 311.683 C 294.134 311.585,293.737 311.509,292.878 311.513 C 292.020 311.517,291.714 311.597,292.200 311.691 M196.058 315.902 L 196.098 317.854 199.415 317.880 L 202.732 317.907 199.533 317.767 L 196.334 317.628 196.176 315.789 L 196.018 313.951 196.058 315.902 M138.102 317.772 C 138.272 317.941,140.064 318.028,142.084 317.964 L 145.756 317.849 141.774 317.656 C 139.584 317.550,137.931 317.602,138.102 317.772 M237.224 317.772 C 237.395 317.942,239.099 318.029,241.011 317.965 L 244.488 317.848 240.701 317.656 C 238.618 317.550,237.053 317.602,237.224 317.772 M211.415 317.946 C 212.541 318.025,214.385 318.025,215.512 317.946 C 216.639 317.867,215.717 317.803,213.463 317.803 C 211.210 317.803,210.288 317.867,211.415 317.946 M288.878 318.333 C 289.683 318.417,291.000 318.417,291.805 318.333 C 292.610 318.249,291.951 318.180,290.341 318.180 C 288.732 318.180,288.073 318.249,288.878 318.333 M264.692 337.951 C 264.692 338.917,264.768 339.312,264.861 338.829 C 264.954 338.346,264.954 337.556,264.861 337.073 C 264.768 336.590,264.692 336.985,264.692 337.951 M285.171 348.373 C 285.654 348.466,286.444 348.466,286.927 348.373 C 287.410 348.280,287.015 348.204,286.049 348.204 C 285.083 348.204,284.688 348.280,285.171 348.373 M295.908 348.378 C 296.501 348.467,297.379 348.465,297.859 348.372 C 298.339 348.280,297.854 348.206,296.780 348.209 C 295.707 348.212,295.315 348.288,295.908 348.378 " stroke="none" fill="#4681d0" fill-rule="evenodd"></path><path id="path4" d="M121.155 78.927 C 121.053 79.195,121.016 95.571,121.072 115.317 L 121.175 151.220 121.270 115.026 L 121.366 78.833 157.561 78.732 L 193.756 78.630 157.549 78.535 C 128.872 78.459,121.303 78.540,121.155 78.927 M206.229 78.925 C 206.127 79.194,206.089 95.571,206.145 115.317 L 206.248 151.220 206.344 115.024 L 206.439 78.829 242.535 78.829 L 278.630 78.829 278.733 114.829 L 278.835 150.829 278.832 114.732 L 278.829 78.634 242.623 78.535 C 213.864 78.455,206.378 78.536,206.229 78.925 M178.826 114.631 L 178.732 136.189 157.171 136.293 L 135.610 136.397 157.183 136.491 C 174.152 136.565,178.796 136.481,178.943 136.098 C 179.046 135.829,179.082 126.039,179.025 114.341 L 178.920 93.073 178.826 114.631 M263.899 114.631 L 263.805 136.189 242.244 136.293 L 220.683 136.397 242.256 136.491 C 259.225 136.565,263.869 136.481,264.016 136.098 C 264.119 135.829,264.156 126.039,264.098 114.341 L 263.993 93.073 263.899 114.631 M121.155 162.439 C 121.053 162.707,121.016 179.083,121.072 198.829 L 121.175 234.732 121.270 198.539 L 121.366 162.346 157.561 162.244 L 193.756 162.142 157.549 162.047 C 128.872 161.971,121.303 162.053,121.155 162.439 M206.223 162.451 C 206.117 162.726,206.083 166.282,206.147 170.353 L 206.262 177.756 206.351 170.052 L 206.439 162.347 230.537 162.244 L 254.634 162.140 230.524 162.046 C 211.219 161.970,206.376 162.051,206.223 162.451 M263.204 162.436 C 263.098 162.712,263.061 167.765,263.122 173.664 L 263.233 184.390 263.324 173.366 L 263.415 162.341 271.024 162.341 L 278.634 162.341 278.634 180.878 L 278.634 199.415 257.179 199.415 L 235.724 199.415 235.606 191.902 L 235.487 184.390 235.500 192.000 L 235.512 199.610 257.171 199.610 L 278.829 199.610 278.829 180.878 L 278.829 162.146 271.113 162.041 C 265.109 161.958,263.354 162.046,263.204 162.436 M178.826 198.143 L 178.732 219.701 157.171 219.805 L 135.610 219.909 157.183 220.003 C 174.152 220.077,178.796 219.993,178.943 219.610 C 179.046 219.341,179.082 209.551,179.025 197.854 L 178.920 176.585 178.826 198.143 M206.233 209.561 C 206.233 223.405,206.282 229.068,206.341 222.146 C 206.401 215.224,206.401 203.898,206.341 196.976 C 206.282 190.054,206.233 195.717,206.233 209.561 M243.205 214.138 L 243.122 218.911 235.220 219.025 L 227.317 219.139 235.232 219.228 C 244.452 219.332,243.584 219.904,243.414 213.830 L 243.289 209.366 243.205 214.138 M270.431 219.215 L 278.618 219.333 278.737 227.032 L 278.855 234.732 278.842 226.927 L 278.829 219.122 270.536 219.110 L 262.243 219.098 270.431 219.215 M105.268 275.021 C 106.610 275.097,108.805 275.097,110.146 275.021 C 111.488 274.944,110.390 274.882,107.707 274.882 C 105.024 274.882,103.927 274.944,105.268 275.021 M142.693 287.902 C 142.593 288.063,144.101 288.138,146.044 288.068 C 148.662 287.974,149.661 288.075,149.904 288.459 C 150.153 288.852,150.233 288.812,150.238 288.293 C 150.244 287.575,143.126 287.207,142.693 287.902 M192.883 293.353 C 193.477 293.443,194.355 293.441,194.835 293.348 C 195.315 293.255,194.829 293.182,193.756 293.185 C 192.683 293.188,192.290 293.264,192.883 293.353 M284.274 327.909 C 284.169 328.181,284.134 332.879,284.195 338.348 L 284.307 348.293 284.397 338.062 L 284.488 327.832 288.488 327.706 L 292.488 327.579 288.476 327.497 C 285.534 327.437,284.413 327.547,284.274 327.909 M281.093 337.951 C 281.093 339.132,281.166 339.615,281.255 339.024 C 281.345 338.434,281.345 337.468,281.255 336.878 C 281.166 336.288,281.093 336.771,281.093 337.951 M288.000 339.340 C 289.450 339.655,291.440 339.711,291.267 339.431 C 291.162 339.261,290.252 339.142,289.245 339.167 C 288.238 339.192,287.678 339.270,288.000 339.340 " stroke="none" fill="#74a4e4" fill-rule="evenodd"></path></g></svg>